<?xml version="1.0" encoding="UTF-8"?>
<svg xmlns="http://www.w3.org/2000/svg" xmlns:xlink="http://www.w3.org/1999/xlink" width="792px" height="567px" viewBox="0 0 792 567" version="1.1">
    <title>iqr</title>
    <defs>
        <filter color-interpolation-filters="auto" id="filter-1">
            <feColorMatrix in="SourceGraphic" type="matrix" values="0 0 0 0 0.968627 0 0 0 0 0.576471 0 0 0 0 0.117647 0 0 0 1.000000 0"/>
        </filter>
        <filter color-interpolation-filters="auto" id="filter-2">
            <feColorMatrix in="SourceGraphic" type="matrix" values="0 0 0 0 0.968627 0 0 0 0 0.576471 0 0 0 0 0.117647 0 0 0 1.000000 0"/>
        </filter>
    </defs>
    <g id="iqr" stroke="none" stroke-width="1" fill="none" fill-rule="evenodd">
        <rect fill="#FFFFFF" x="0" y="0" width="792" height="567"/>
        <line x1="463" y1="41" x2="463" y2="350" id="Line-52" stroke="#73B0DE" stroke-width="2" stroke-linecap="round" stroke-dasharray="0,4"/>
        <line x1="345" y1="41" x2="345" y2="350" id="Line-52" stroke="#73B0DE" stroke-width="2" stroke-linecap="round" stroke-dasharray="0,4"/>
        <line x1="639" y1="41" x2="639" y2="391" id="Line-52" stroke="#73B0DE" stroke-width="2" stroke-linecap="round" stroke-dasharray="0,4"/>
        <line x1="169" y1="41" x2="169" y2="391" id="Line-52" stroke="#73B0DE" stroke-width="2" stroke-linecap="round" stroke-dasharray="0,4"/>
        <rect id="Rectangle" fill="#FFFFFF" x="134" y="284" width="548" height="27"/>
        <path d="M345.000338,92.9996198 L344.999896,234.999999 L169,235 L169.000366,230.379915 C246.241419,217.732581 271.118765,181.137604 301.279519,145.854737 C317.064798,127.388689 331.171611,108.563231 345.000338,92.9996198 Z" id="Combined-Shape" fill="#E4F4FF"/>
        <path d="M463.000036,95.0000293 C488.95894,124.717859 517.300881,166.813578 559.586506,201.855562 C577.670764,216.841939 605.371202,226.432917 638.999339,231.518765 L639,236 L463,236 L463.000036,95.0000293 Z" id="Combined-Shape" fill="#E4F4FF"/>
        <path d="M403.382079,57 C425.204163,57 443.424127,72.3035571 462.999082,94.6149544 L462.999038,235 L345,235 L345.000391,93.2312016 C363.801825,72.1057551 382.089239,57 403.382079,57 Z" id="Combined-Shape" fill="#C2E1F9"/>
        <path d="M105,235 C234.70513,235 263.894363,189.501092 301.141304,146 C338.388246,102.498908 366.289955,57 403.244088,57 C454.005345,57 485.275776,139.806493 559.448506,201.00469 C588.383749,224.878487 641.937144,235 705,235" id="Stroke-4" stroke="#73B0DE" stroke-width="3"/>
        <g id="axis/x-scale" transform="translate(37.000000, 237.000000)">
            <g id="0">
                <path d="M11.504,20.496 L11.504,19.472 L7.824,19.472 L7.824,20.496 L11.504,20.496 Z M18.256,24 L18.256,21.184 L19.648,21.184 L19.648,20.128 L18.256,20.128 L18.256,13.792 L16.784,13.792 L12.416,20.304 L12.416,21.184 L17.008,21.184 L17.008,24 L18.256,24 Z M17.008,20.128 L13.808,20.128 L16.192,16.656 C16.48,16.144 16.768,15.696 17.024,15.216 L17.088,15.216 C17.056,15.76 17.008,16.64 17.008,17.168 L17.008,20.128 Z M24.32,24.192 C26.224,24.192 27.712,22.784 27.712,20.368 C27.712,18.912 27.152,17.824 26.192,17.296 L26.192,17.232 C27.056,17.232 27.76,17.28 28.64,17.36 L28.64,16.224 L24.384,16.224 C22.544,16.224 20.832,17.472 20.832,20.192 C20.832,22.768 22.432,24.192 24.32,24.192 Z M24.336,23.088 C23.104,23.088 22.208,21.968 22.208,20.192 C22.208,18.256 23.12,17.328 24.352,17.328 C25.68,17.328 26.416,18.704 26.416,20.256 C26.416,22 25.552,23.088 24.336,23.088 Z" id="-4σ" fill="#333333" fill-rule="nonzero"/>
                <line x1="18" y1="0" x2="18" y2="8" id="Path-7" stroke="#636F80" stroke-width="2"/>
            </g>
            <g id="1" transform="translate(87.669065, 0.000000)">
                <path d="M11.504,20.496 L11.504,19.472 L7.824,19.472 L7.824,20.496 L11.504,20.496 Z M15.92,24.192 C17.792,24.192 19.296,23.088 19.296,21.28 C19.296,19.872 18.32,18.976 17.088,18.688 L17.088,18.624 C18.192,18.208 18.928,17.424 18.928,16.192 C18.928,14.544 17.648,13.6 15.872,13.6 C14.672,13.6 13.728,14.144 12.944,14.88 L13.648,15.712 C14.256,15.12 14.976,14.688 15.824,14.688 C16.912,14.688 17.584,15.312 17.584,16.288 C17.584,17.36 16.848,18.192 14.688,18.192 L14.688,19.2 C17.12,19.2 17.952,20.016 17.952,21.232 C17.952,22.368 17.072,23.088 15.84,23.088 C14.64,23.088 13.84,22.528 13.232,21.888 L12.56,22.752 C13.248,23.504 14.288,24.192 15.92,24.192 Z M24.32,24.192 C26.224,24.192 27.712,22.784 27.712,20.368 C27.712,18.912 27.152,17.824 26.192,17.296 L26.192,17.232 C27.056,17.232 27.76,17.28 28.64,17.36 L28.64,16.224 L24.384,16.224 C22.544,16.224 20.832,17.472 20.832,20.192 C20.832,22.768 22.432,24.192 24.32,24.192 Z M24.336,23.088 C23.104,23.088 22.208,21.968 22.208,20.192 C22.208,18.256 23.12,17.328 24.352,17.328 C25.68,17.328 26.416,18.704 26.416,20.256 C26.416,22 25.552,23.088 24.336,23.088 Z" id="-3σ" fill="#333333" fill-rule="nonzero"/>
                <line x1="18" y1="0" x2="18" y2="8" id="Path-7" stroke="#636F80" stroke-width="2"/>
            </g>
            <g id="2" transform="translate(174.599520, 0.000000)">
                <path d="M11.504,20.496 L11.504,19.472 L7.824,19.472 L7.824,20.496 L11.504,20.496 Z M19.376,24 L19.376,22.864 L16.32,22.864 C15.792,22.864 15.168,22.896 14.608,22.944 C17.088,20.416 18.88,18.576 18.88,16.592 C18.88,14.8 17.696,13.6 15.808,13.6 C14.496,13.6 13.584,14.224 12.736,15.184 L13.488,15.904 C14.064,15.232 14.8,14.688 15.648,14.688 C16.944,14.688 17.584,15.504 17.584,16.672 C17.584,18.32 15.824,20.208 12.784,23.184 L12.784,24 L19.376,24 Z M24.32,24.192 C26.224,24.192 27.712,22.784 27.712,20.368 C27.712,18.912 27.152,17.824 26.192,17.296 L26.192,17.232 C27.056,17.232 27.76,17.28 28.64,17.36 L28.64,16.224 L24.384,16.224 C22.544,16.224 20.832,17.472 20.832,20.192 C20.832,22.768 22.432,24.192 24.32,24.192 Z M24.336,23.088 C23.104,23.088 22.208,21.968 22.208,20.192 C22.208,18.256 23.12,17.328 24.352,17.328 C25.68,17.328 26.416,18.704 26.416,20.256 C26.416,22 25.552,23.088 24.336,23.088 Z" id="-2σ" fill="#333333" fill-rule="nonzero"/>
                <line x1="18" y1="0" x2="18" y2="8" id="Path-7" stroke="#636F80" stroke-width="2"/>
            </g>
            <g id="3" transform="translate(261.529976, 0.000000)">
                <path d="M11.504,20.496 L11.504,19.472 L7.824,19.472 L7.824,20.496 L11.504,20.496 Z M19.168,24 L19.168,22.896 L17.072,22.896 L17.072,13.792 L16.048,13.792 C15.488,14.128 14.816,14.384 13.872,14.544 L13.872,15.408 L15.744,15.408 L15.744,22.896 L13.408,22.896 L13.408,24 L19.168,24 Z M24.32,24.192 C26.224,24.192 27.712,22.784 27.712,20.368 C27.712,18.912 27.152,17.824 26.192,17.296 L26.192,17.232 C27.056,17.232 27.76,17.28 28.64,17.36 L28.64,16.224 L24.384,16.224 C22.544,16.224 20.832,17.472 20.832,20.192 C20.832,22.768 22.432,24.192 24.32,24.192 Z M24.336,23.088 C23.104,23.088 22.208,21.968 22.208,20.192 C22.208,18.256 23.12,17.328 24.352,17.328 C25.68,17.328 26.416,18.704 26.416,20.256 C26.416,22 25.552,23.088 24.336,23.088 Z" id="-1σ" fill="#333333" fill-rule="nonzero"/>
                <line x1="18" y1="0" x2="18" y2="8" id="Path-7" stroke="#636F80" stroke-width="2"/>
            </g>
            <g id="4" transform="translate(348.460432, 0.000000)">
                <path d="M13.64,24.192 C15.672,24.192 16.904,22.288 16.904,18.864 C16.904,15.44 15.672,13.6 13.64,13.6 C11.592,13.6 10.36,15.44 10.36,18.864 C10.36,22.288 11.592,24.192 13.64,24.192 Z M13.64,23.12 C12.456,23.12 11.656,21.856 11.656,18.864 C11.656,15.872 12.456,14.672 13.64,14.672 C14.824,14.672 15.624,15.872 15.624,18.864 C15.624,21.856 14.824,23.12 13.64,23.12 Z M21.832,24.192 C23.736,24.192 25.224,22.784 25.224,20.368 C25.224,18.912 24.664,17.824 23.704,17.296 L23.704,17.232 C24.568,17.232 25.272,17.28 26.152,17.36 L26.152,16.224 L21.896,16.224 C20.056,16.224 18.344,17.472 18.344,20.192 C18.344,22.768 19.944,24.192 21.832,24.192 Z M21.848,23.088 C20.616,23.088 19.72,21.968 19.72,20.192 C19.72,18.256 20.632,17.328 21.864,17.328 C23.192,17.328 23.928,18.704 23.928,20.256 C23.928,22 23.064,23.088 21.848,23.088 Z" id="0σ" fill="#333333" fill-rule="nonzero"/>
                <line x1="18" y1="0" x2="18" y2="8" id="Path-7" stroke="#636F80" stroke-width="2"/>
            </g>
            <g id="5" transform="translate(437.129496, 0.000000)">
                <path d="M16.68,24 L16.68,22.896 L14.584,22.896 L14.584,13.792 L13.56,13.792 C13,14.128 12.328,14.384 11.384,14.544 L11.384,15.408 L13.256,15.408 L13.256,22.896 L10.92,22.896 L10.92,24 L16.68,24 Z M21.832,24.192 C23.736,24.192 25.224,22.784 25.224,20.368 C25.224,18.912 24.664,17.824 23.704,17.296 L23.704,17.232 C24.568,17.232 25.272,17.28 26.152,17.36 L26.152,16.224 L21.896,16.224 C20.056,16.224 18.344,17.472 18.344,20.192 C18.344,22.768 19.944,24.192 21.832,24.192 Z M21.848,23.088 C20.616,23.088 19.72,21.968 19.72,20.192 C19.72,18.256 20.632,17.328 21.864,17.328 C23.192,17.328 23.928,18.704 23.928,20.256 C23.928,22 23.064,23.088 21.848,23.088 Z" id="1σ" fill="#333333" fill-rule="nonzero"/>
                <line x1="18" y1="0" x2="18" y2="8" id="Path-7" stroke="#636F80" stroke-width="2"/>
            </g>
            <g id="6" transform="translate(524.059952, 0.000000)">
                <path d="M16.888,24 L16.888,22.864 L13.832,22.864 C13.304,22.864 12.68,22.896 12.12,22.944 C14.6,20.416 16.392,18.576 16.392,16.592 C16.392,14.8 15.208,13.6 13.32,13.6 C12.008,13.6 11.096,14.224 10.248,15.184 L11,15.904 C11.576,15.232 12.312,14.688 13.16,14.688 C14.456,14.688 15.096,15.504 15.096,16.672 C15.096,18.32 13.336,20.208 10.296,23.184 L10.296,24 L16.888,24 Z M21.832,24.192 C23.736,24.192 25.224,22.784 25.224,20.368 C25.224,18.912 24.664,17.824 23.704,17.296 L23.704,17.232 C24.568,17.232 25.272,17.28 26.152,17.36 L26.152,16.224 L21.896,16.224 C20.056,16.224 18.344,17.472 18.344,20.192 C18.344,22.768 19.944,24.192 21.832,24.192 Z M21.848,23.088 C20.616,23.088 19.72,21.968 19.72,20.192 C19.72,18.256 20.632,17.328 21.864,17.328 C23.192,17.328 23.928,18.704 23.928,20.256 C23.928,22 23.064,23.088 21.848,23.088 Z" id="2σ" fill="#333333" fill-rule="nonzero"/>
                <line x1="18" y1="0" x2="18" y2="8" id="Path-7" stroke="#636F80" stroke-width="2"/>
            </g>
            <g id="7" transform="translate(610.990408, 0.000000)">
                <path d="M13.432,24.192 C15.304,24.192 16.808,23.088 16.808,21.28 C16.808,19.872 15.832,18.976 14.6,18.688 L14.6,18.624 C15.704,18.208 16.44,17.424 16.44,16.192 C16.44,14.544 15.16,13.6 13.384,13.6 C12.184,13.6 11.24,14.144 10.456,14.88 L11.16,15.712 C11.768,15.12 12.488,14.688 13.336,14.688 C14.424,14.688 15.096,15.312 15.096,16.288 C15.096,17.36 14.36,18.192 12.2,18.192 L12.2,19.2 C14.632,19.2 15.464,20.016 15.464,21.232 C15.464,22.368 14.584,23.088 13.352,23.088 C12.152,23.088 11.352,22.528 10.744,21.888 L10.072,22.752 C10.76,23.504 11.8,24.192 13.432,24.192 Z M21.832,24.192 C23.736,24.192 25.224,22.784 25.224,20.368 C25.224,18.912 24.664,17.824 23.704,17.296 L23.704,17.232 C24.568,17.232 25.272,17.28 26.152,17.36 L26.152,16.224 L21.896,16.224 C20.056,16.224 18.344,17.472 18.344,20.192 C18.344,22.768 19.944,24.192 21.832,24.192 Z M21.848,23.088 C20.616,23.088 19.72,21.968 19.72,20.192 C19.72,18.256 20.632,17.328 21.864,17.328 C23.192,17.328 23.928,18.704 23.928,20.256 C23.928,22 23.064,23.088 21.848,23.088 Z" id="3σ" fill="#333333" fill-rule="nonzero"/>
                <line x1="18" y1="0" x2="18" y2="8" id="Path-7" stroke="#636F80" stroke-width="2"/>
            </g>
            <g id="8" transform="translate(697.920863, 0.000000)">
                <path d="M15.768,24 L15.768,21.184 L17.16,21.184 L17.16,20.128 L15.768,20.128 L15.768,13.792 L14.296,13.792 L9.928,20.304 L9.928,21.184 L14.52,21.184 L14.52,24 L15.768,24 Z M14.52,20.128 L11.32,20.128 L13.704,16.656 C13.992,16.144 14.28,15.696 14.536,15.216 L14.6,15.216 C14.568,15.76 14.52,16.64 14.52,17.168 L14.52,20.128 Z M21.832,24.192 C23.736,24.192 25.224,22.784 25.224,20.368 C25.224,18.912 24.664,17.824 23.704,17.296 L23.704,17.232 C24.568,17.232 25.272,17.28 26.152,17.36 L26.152,16.224 L21.896,16.224 C20.056,16.224 18.344,17.472 18.344,20.192 C18.344,22.768 19.944,24.192 21.832,24.192 Z M21.848,23.088 C20.616,23.088 19.72,21.968 19.72,20.192 C19.72,18.256 20.632,17.328 21.864,17.328 C23.192,17.328 23.928,18.704 23.928,20.256 C23.928,22 23.064,23.088 21.848,23.088 Z" id="4σ" fill="#333333" fill-rule="nonzero"/>
                <line x1="18" y1="0" x2="18" y2="8" id="Path-7" stroke="#636F80" stroke-width="2"/>
            </g>
        </g>
        <g id="Group" transform="translate(168.000000, 357.000000)" stroke-width="2">
            <rect id="Rectangle" stroke="#73B0DE" fill="#FFFFFF" x="177" y="0" width="118" height="105"/>
            <line x1="297" y1="52" x2="466" y2="52" id="Line-55" stroke="#73B0DE" stroke-linecap="square" stroke-dasharray="4,4"/>
            <line x1="3" y1="52" x2="174" y2="52" id="Line-55" stroke="#73B0DE" stroke-linecap="square" stroke-dasharray="4,4"/>
            <line x1="236" y1="2" x2="236" y2="103" id="Line-54" stroke="#F7931E" stroke-linecap="square"/>
            <line x1="471" y1="65" x2="471" y2="39" id="Line-56" stroke="#73B0DE" stroke-linecap="square"/>
            <line x1="1" y1="65" x2="1" y2="39" id="Line-56" stroke="#73B0DE" stroke-linecap="square"/>
        </g>
        <path d="M393.084,216.192 C395.084,216.192 396.844,214.896 396.844,212.624 C396.844,210.48 395.356,209.488 393.596,209.488 C393.212,209.488 392.892,209.536 392.524,209.696 L392.668,207.92 L396.38,207.92 L396.38,205.84 L390.54,205.84 L390.268,211.008 L391.356,211.712 C391.964,211.328 392.252,211.2 392.828,211.2 C393.724,211.2 394.364,211.728 394.364,212.688 C394.364,213.68 393.724,214.192 392.716,214.192 C391.884,214.192 391.18,213.76 390.572,213.2 L389.452,214.752 C390.268,215.568 391.42,216.192 393.084,216.192 Z M401.868,216.192 C404.076,216.192 405.548,214.336 405.548,210.88 C405.548,207.424 404.076,205.648 401.868,205.648 C399.66,205.648 398.188,207.408 398.188,210.88 C398.188,214.336 399.66,216.192 401.868,216.192 Z M401.868,214.288 C401.116,214.288 400.524,213.616 400.524,210.88 C400.524,208.128 401.116,207.568 401.868,207.568 C402.604,207.568 403.212,208.128 403.212,210.88 C403.212,213.616 402.604,214.288 401.868,214.288 Z M409.148,212.016 C410.668,212.016 411.772,210.768 411.772,208.688 C411.772,206.608 410.668,205.392 409.148,205.392 C407.628,205.392 406.508,206.608 406.508,208.688 C406.508,210.768 407.628,212.016 409.148,212.016 Z M410.924,216.192 L416.54,205.392 L415.132,205.392 L409.516,216.192 L410.924,216.192 Z M409.148,210.64 C408.652,210.64 408.236,210.144 408.236,208.688 C408.236,207.232 408.652,206.768 409.148,206.768 C409.644,206.768 410.06,207.232 410.06,208.688 C410.06,210.144 409.644,210.64 409.148,210.64 Z M416.892,216.192 C418.412,216.192 419.516,214.944 419.516,212.864 C419.516,210.784 418.412,209.568 416.892,209.568 C415.372,209.568 414.252,210.784 414.252,212.864 C414.252,214.944 415.372,216.192 416.892,216.192 Z M416.892,214.816 C416.396,214.816 415.98,214.32 415.98,212.864 C415.98,211.408 416.396,210.944 416.892,210.944 C417.388,210.944 417.804,211.408 417.804,212.864 C417.804,214.32 417.388,214.816 416.892,214.816 Z" id="50%" fill="#73B0DE" fill-rule="nonzero"/>
        <path d="M281.94,216 L281.94,213.92 L279.764,213.92 C279.3,213.92 278.596,213.984 278.068,214.032 C279.78,212.368 281.444,210.72 281.444,208.896 C281.444,206.944 280.052,205.648 278.036,205.648 C276.596,205.648 275.652,206.208 274.66,207.328 L275.94,208.608 C276.436,208.08 276.996,207.6 277.7,207.6 C278.548,207.6 279.076,208.096 279.076,209.056 C279.076,210.464 277.22,212.272 274.724,214.48 L274.724,216 L281.94,216 Z M289.636,216 L289.636,213.632 L290.788,213.632 L290.788,211.744 L289.636,211.744 L289.636,205.84 L286.58,205.84 L282.964,211.904 L282.964,213.632 L287.332,213.632 L287.332,216 L289.636,216 Z M287.332,211.744 L285.316,211.744 L286.516,209.68 C286.804,209.088 287.092,208.512 287.348,207.92 L287.412,207.92 C287.38,208.592 287.332,209.584 287.332,210.24 L287.332,211.744 Z M293.604,216.192 C294.452,216.192 295.092,215.52 295.092,214.656 C295.092,213.792 294.452,213.12 293.604,213.12 C292.756,213.12 292.132,213.792 292.132,214.656 C292.132,215.52 292.756,216.192 293.604,216.192 Z M300.596,216.192 C302.452,216.192 304.02,214.912 304.02,212.768 C304.02,210.608 302.708,209.632 300.98,209.632 C300.372,209.632 299.508,210.016 298.98,210.688 C299.076,208.416 299.924,207.648 301.012,207.648 C301.588,207.648 302.228,208 302.564,208.368 L303.876,206.896 C303.22,206.24 302.212,205.648 300.836,205.648 C298.692,205.648 296.708,207.376 296.708,211.136 C296.708,214.736 298.628,216.192 300.596,216.192 Z M300.532,214.336 C299.892,214.336 299.252,213.888 299.044,212.336 C299.412,211.664 299.972,211.376 300.484,211.376 C301.204,211.376 301.764,211.728 301.764,212.768 C301.764,213.888 301.188,214.336 300.532,214.336 Z M308.564,216.192 C310.564,216.192 312.324,214.896 312.324,212.624 C312.324,210.48 310.836,209.488 309.076,209.488 C308.692,209.488 308.372,209.536 308.004,209.696 L308.148,207.92 L311.86,207.92 L311.86,205.84 L306.02,205.84 L305.748,211.008 L306.836,211.712 C307.444,211.328 307.732,211.2 308.308,211.2 C309.204,211.2 309.844,211.728 309.844,212.688 C309.844,213.68 309.204,214.192 308.196,214.192 C307.364,214.192 306.66,213.76 306.052,213.2 L304.932,214.752 C305.748,215.568 306.9,216.192 308.564,216.192 Z M316.116,212.016 C317.636,212.016 318.74,210.768 318.74,208.688 C318.74,206.608 317.636,205.392 316.116,205.392 C314.596,205.392 313.476,206.608 313.476,208.688 C313.476,210.768 314.596,212.016 316.116,212.016 Z M317.892,216.192 L323.508,205.392 L322.1,205.392 L316.484,216.192 L317.892,216.192 Z M316.116,210.64 C315.62,210.64 315.204,210.144 315.204,208.688 C315.204,207.232 315.62,206.768 316.116,206.768 C316.612,206.768 317.028,207.232 317.028,208.688 C317.028,210.144 316.612,210.64 316.116,210.64 Z M323.86,216.192 C325.38,216.192 326.484,214.944 326.484,212.864 C326.484,210.784 325.38,209.568 323.86,209.568 C322.34,209.568 321.22,210.784 321.22,212.864 C321.22,214.944 322.34,216.192 323.86,216.192 Z M323.86,214.816 C323.364,214.816 322.948,214.32 322.948,212.864 C322.948,211.408 323.364,210.944 323.86,210.944 C324.356,210.944 324.772,211.408 324.772,212.864 C324.772,214.32 324.356,214.816 323.86,214.816 Z" id="24.65%" fill="#73B0DE" fill-rule="nonzero"/>
        <path d="M488.94,216 L488.94,213.92 L486.764,213.92 C486.3,213.92 485.596,213.984 485.068,214.032 C486.78,212.368 488.444,210.72 488.444,208.896 C488.444,206.944 487.052,205.648 485.036,205.648 C483.596,205.648 482.652,206.208 481.66,207.328 L482.94,208.608 C483.436,208.08 483.996,207.6 484.7,207.6 C485.548,207.6 486.076,208.096 486.076,209.056 C486.076,210.464 484.22,212.272 481.724,214.48 L481.724,216 L488.94,216 Z M496.636,216 L496.636,213.632 L497.788,213.632 L497.788,211.744 L496.636,211.744 L496.636,205.84 L493.58,205.84 L489.964,211.904 L489.964,213.632 L494.332,213.632 L494.332,216 L496.636,216 Z M494.332,211.744 L492.316,211.744 L493.516,209.68 C493.804,209.088 494.092,208.512 494.348,207.92 L494.412,207.92 C494.38,208.592 494.332,209.584 494.332,210.24 L494.332,211.744 Z M500.604,216.192 C501.452,216.192 502.092,215.52 502.092,214.656 C502.092,213.792 501.452,213.12 500.604,213.12 C499.756,213.12 499.132,213.792 499.132,214.656 C499.132,215.52 499.756,216.192 500.604,216.192 Z M507.596,216.192 C509.452,216.192 511.02,214.912 511.02,212.768 C511.02,210.608 509.708,209.632 507.98,209.632 C507.372,209.632 506.508,210.016 505.98,210.688 C506.076,208.416 506.924,207.648 508.012,207.648 C508.588,207.648 509.228,208 509.564,208.368 L510.876,206.896 C510.22,206.24 509.212,205.648 507.836,205.648 C505.692,205.648 503.708,207.376 503.708,211.136 C503.708,214.736 505.628,216.192 507.596,216.192 Z M507.532,214.336 C506.892,214.336 506.252,213.888 506.044,212.336 C506.412,211.664 506.972,211.376 507.484,211.376 C508.204,211.376 508.764,211.728 508.764,212.768 C508.764,213.888 508.188,214.336 507.532,214.336 Z M515.564,216.192 C517.564,216.192 519.324,214.896 519.324,212.624 C519.324,210.48 517.836,209.488 516.076,209.488 C515.692,209.488 515.372,209.536 515.004,209.696 L515.148,207.92 L518.86,207.92 L518.86,205.84 L513.02,205.84 L512.748,211.008 L513.836,211.712 C514.444,211.328 514.732,211.2 515.308,211.2 C516.204,211.2 516.844,211.728 516.844,212.688 C516.844,213.68 516.204,214.192 515.196,214.192 C514.364,214.192 513.66,213.76 513.052,213.2 L511.932,214.752 C512.748,215.568 513.9,216.192 515.564,216.192 Z M523.116,212.016 C524.636,212.016 525.74,210.768 525.74,208.688 C525.74,206.608 524.636,205.392 523.116,205.392 C521.596,205.392 520.476,206.608 520.476,208.688 C520.476,210.768 521.596,212.016 523.116,212.016 Z M524.892,216.192 L530.508,205.392 L529.1,205.392 L523.484,216.192 L524.892,216.192 Z M523.116,210.64 C522.62,210.64 522.204,210.144 522.204,208.688 C522.204,207.232 522.62,206.768 523.116,206.768 C523.612,206.768 524.028,207.232 524.028,208.688 C524.028,210.144 523.612,210.64 523.116,210.64 Z M530.86,216.192 C532.38,216.192 533.484,214.944 533.484,212.864 C533.484,210.784 532.38,209.568 530.86,209.568 C529.34,209.568 528.22,210.784 528.22,212.864 C528.22,214.944 529.34,216.192 530.86,216.192 Z M530.86,214.816 C530.364,214.816 529.948,214.32 529.948,212.864 C529.948,211.408 530.364,210.944 530.86,210.944 C531.356,210.944 531.772,211.408 531.772,212.864 C531.772,214.32 531.356,214.816 530.86,214.816 Z" id="24.65%" fill="#73B0DE" fill-rule="nonzero"/>
        <path d="M374.04,343 L374.04,338.232 C374.04,337.24 373.88,335.8 373.752,334.84 L373.816,334.84 L374.648,337.368 L376.312,342.04 L377.56,342.04 L379.256,337.368 L380.088,334.84 L380.152,334.84 C380.024,335.8 379.864,337.24 379.864,338.232 L379.864,343 L381.624,343 L381.624,332.536 L379.384,332.536 L377.592,337.656 C377.368,338.328 377.208,338.936 377.016,339.704 L376.952,339.704 C376.76,338.936 376.568,338.328 376.344,337.656 L374.552,332.536 L372.312,332.536 L372.312,343 L374.04,343 Z M387.448,343.192 C388.472,343.192 389.432,342.904 390.168,342.36 L389.528,341.176 C388.984,341.528 388.376,341.72 387.704,341.72 C386.456,341.72 385.624,340.952 385.432,339.64 L390.392,339.64 C390.456,339.352 390.488,339.064 390.488,338.68 C390.488,336.472 389.336,334.936 387.208,334.936 C385.368,334.936 383.576,336.504 383.576,339.064 C383.576,341.688 385.272,343.192 387.448,343.192 Z M388.824,338.232 L385.432,338.232 C385.592,337.048 386.36,336.408 387.256,336.408 C388.28,336.408 388.824,337.08 388.824,338.232 Z M393.112,345.752 L393.112,343 L397.96,343 L397.96,345.752 L399.592,345.752 L399.768,342.728 L399.768,341.496 L398.568,341.496 L398.568,335.128 L393.128,335.128 L392.744,338.408 C392.456,340.776 392.152,341.288 391.752,341.496 L391.304,341.496 L391.304,342.728 L391.48,345.752 L393.112,345.752 Z M396.68,341.496 L393.656,341.496 C393.992,340.904 394.248,340.04 394.392,338.824 L394.632,336.632 L396.68,336.632 L396.68,341.496 Z M403.24,343 L405.448,339.224 C405.736,338.744 406.088,338.04 406.376,337.384 L406.44,337.384 C406.312,338.552 406.264,339.48 406.264,340.296 L406.264,343 L408.056,343 L408.056,335.144 L406.024,335.144 L403.816,338.936 C403.528,339.416 403.176,340.152 402.888,340.76 L402.824,340.76 C402.92,339.608 403,338.68 403,337.848 L403,335.144 L401.208,335.144 L401.208,343 L403.24,343 Z M412.296,343.192 C413.224,343.192 413.992,342.744 414.696,342.136 L414.76,342.136 L414.92,343 L416.456,343 L416.456,338.344 C416.456,336.152 415.464,334.936 413.512,334.936 C412.264,334.936 411.144,335.416 410.28,335.96 L410.952,337.208 C411.656,336.792 412.392,336.472 413.16,336.472 C414.216,336.472 414.536,337.144 414.568,337.944 C411.336,338.296 409.96,339.16 409.96,340.888 C409.96,342.264 410.92,343.192 412.296,343.192 Z M412.872,341.688 C412.232,341.688 411.784,341.432 411.784,340.76 C411.784,339.96 412.424,339.48 414.568,339.224 L414.568,340.888 C413.992,341.432 413.512,341.688 412.872,341.688 Z M420.552,343 L420.552,339.784 L423.624,339.784 L423.624,343 L425.512,343 L425.512,335.128 L423.624,335.128 L423.624,338.12 L420.552,338.12 L420.552,335.128 L418.648,335.128 L418.648,343 L420.552,343 Z M429.736,343.192 C430.664,343.192 431.432,342.744 432.136,342.136 L432.2,342.136 L432.36,343 L433.896,343 L433.896,338.344 C433.896,336.152 432.904,334.936 430.952,334.936 C429.704,334.936 428.584,335.416 427.72,335.96 L428.392,337.208 C429.096,336.792 429.832,336.472 430.6,336.472 C431.656,336.472 431.976,337.144 432.008,337.944 C428.776,338.296 427.4,339.16 427.4,340.888 C427.4,342.264 428.36,343.192 429.736,343.192 Z M430.312,341.688 C429.672,341.688 429.224,341.432 429.224,340.76 C429.224,339.96 429.864,339.48 432.008,339.224 L432.008,340.888 C431.432,341.432 430.952,341.688 430.312,341.688 Z" id="Медиана" fill="#333333" fill-rule="nonzero"/>
        <path d="M394.232,497 L394.232,486.536 L392.328,486.536 L392.328,497 L394.232,497 Z M404.28,499.784 C405.016,499.784 405.624,499.656 405.976,499.48 L405.624,498.104 C405.336,498.184 404.952,498.248 404.488,498.248 C403.512,498.248 402.568,497.896 402.072,497.064 C404.2,496.568 405.576,494.616 405.576,491.72 C405.576,488.344 403.688,486.344 400.952,486.344 C398.216,486.344 396.328,488.344 396.328,491.72 C396.328,494.728 397.816,496.712 400.072,497.112 C400.744,498.664 402.2,499.784 404.28,499.784 Z M400.952,495.624 C399.32,495.624 398.28,494.152 398.28,491.72 C398.28,489.4 399.32,488.008 400.952,488.008 C402.568,488.008 403.624,489.4 403.624,491.72 C403.624,494.152 402.568,495.624 400.952,495.624 Z M409.576,497 L409.576,492.936 L411.128,492.936 L413.368,497 L415.496,497 L413.016,492.648 C414.264,492.216 415.08,491.24 415.08,489.656 C415.08,487.304 413.4,486.536 411.208,486.536 L407.672,486.536 L407.672,497 L409.576,497 Z M411.016,491.416 L409.576,491.416 L409.576,488.056 L411.016,488.056 C412.44,488.056 413.208,488.472 413.208,489.656 C413.208,490.824 412.44,491.416 411.016,491.416 Z" id="IQR" fill="#333333" fill-rule="nonzero"/>
        <path d="M341.736,483.784 C342.472,483.784 343.08,483.656 343.432,483.48 L343.08,482.104 C342.792,482.184 342.408,482.248 341.944,482.248 C340.968,482.248 340.024,481.896 339.528,481.064 C341.656,480.568 343.032,478.616 343.032,475.72 C343.032,472.344 341.144,470.344 338.408,470.344 C335.672,470.344 333.784,472.344 333.784,475.72 C333.784,478.728 335.272,480.712 337.528,481.112 C338.2,482.664 339.656,483.784 341.736,483.784 Z M338.408,479.624 C336.776,479.624 335.736,478.152 335.736,475.72 C335.736,473.4 336.776,472.008 338.408,472.008 C340.024,472.008 341.08,473.4 341.08,475.72 C341.08,478.152 340.024,479.624 338.408,479.624 Z M351.128,489 L351.128,487.464 L349.144,487.464 L349.144,478.824 L347.736,478.824 C347.08,479.208 346.392,479.48 345.368,479.672 L345.368,480.856 L347.256,480.856 L347.256,487.464 L344.984,487.464 L344.984,489 L351.128,489 Z" id="Q1" fill="#333333" fill-rule="nonzero"/>
        <path d="M461.736,483.784 C462.472,483.784 463.08,483.656 463.432,483.48 L463.08,482.104 C462.792,482.184 462.408,482.248 461.944,482.248 C460.968,482.248 460.024,481.896 459.528,481.064 C461.656,480.568 463.032,478.616 463.032,475.72 C463.032,472.344 461.144,470.344 458.408,470.344 C455.672,470.344 453.784,472.344 453.784,475.72 C453.784,478.728 455.272,480.712 457.528,481.112 C458.2,482.664 459.656,483.784 461.736,483.784 Z M458.408,479.624 C456.776,479.624 455.736,478.152 455.736,475.72 C455.736,473.4 456.776,472.008 458.408,472.008 C460.024,472.008 461.08,473.4 461.08,475.72 C461.08,478.152 460.024,479.624 458.408,479.624 Z M467.64,489.192 C469.608,489.192 471.24,488.104 471.24,486.248 C471.24,484.904 470.328,484.04 469.128,483.72 L469.128,483.656 C470.232,483.224 470.888,482.456 470.888,481.32 C470.888,479.608 469.544,478.632 467.592,478.632 C466.36,478.632 465.384,479.144 464.504,479.912 L465.48,481.08 C466.104,480.504 466.728,480.136 467.512,480.136 C468.44,480.136 468.984,480.632 468.984,481.464 C468.984,482.392 468.344,483.064 466.36,483.064 L466.36,484.44 C468.664,484.44 469.336,485.112 469.336,486.152 C469.336,487.096 468.568,487.656 467.48,487.656 C466.472,487.656 465.688,487.16 465.08,486.552 L464.184,487.752 C464.904,488.568 465.992,489.192 467.64,489.192 Z" id="Q3" fill="#333333" fill-rule="nonzero"/>
        <g id="Arrow/Orange-Circle/Horizontal" transform="translate(346.000000, 504.000000)">
            <g id="Start-point-Copy" transform="translate(106.000000, 0.000000)" filter="url(#filter-1)">
                <g>
                    <path d="M10,4.99949863 C10,4.99949863 -8.8817842e-16,10 -8.8817842e-16,10 L1.99948634,4.99949863 L-8.8817842e-16,0 C-8.8817842e-16,0 10,4.99949863 10,4.99949863 Z" id="Path" fill="#F7931E" fill-rule="nonzero"/>
                </g>
            </g>
            <g id="Start-point-Copy-2" filter="url(#filter-2)">
                <g transform="translate(5.000000, 5.000000) rotate(-180.000000) translate(-5.000000, -5.000000) ">
                    <path d="M10,4.99949863 C10,4.99949863 -8.8817842e-16,10 -8.8817842e-16,10 L1.99948634,4.99949863 L-8.8817842e-16,0 C-8.8817842e-16,0 10,4.99949863 10,4.99949863 Z" id="Path" fill="#F7931E" fill-rule="nonzero"/>
                </g>
            </g>
            <line x1="5" y1="5" x2="111" y2="5" id="Path-2-Copy" stroke="#F7931E" stroke-width="2"/>
        </g>
        <path d="M142.6935,299.401 L142.6935,298.057 L137.8635,298.057 L137.8635,299.401 L142.6935,299.401 Z M153.0255,304 L153.0255,302.509 L149.0145,302.509 C148.3215,302.509 147.5025,302.551 146.7675,302.614 C150.0225,299.296 152.3745,296.881 152.3745,294.277 C152.3745,291.925 150.8205,290.35 148.3425,290.35 C146.6205,290.35 145.4235,291.169 144.3105,292.429 L145.2975,293.374 C146.0535,292.492 147.0195,291.778 148.1325,291.778 C149.8335,291.778 150.6735,292.849 150.6735,294.382 C150.6735,296.545 148.3635,299.023 144.3735,302.929 L144.3735,304 L153.0255,304 Z M156.5955,304.252 C157.2885,304.252 157.8555,303.706 157.8555,302.929 C157.8555,302.131 157.2885,301.585 156.5955,301.585 C155.9025,301.585 155.3355,302.131 155.3355,302.929 C155.3355,303.706 155.9025,304.252 156.5955,304.252 Z M164.8485,304.252 C167.0115,304.252 168.8175,302.509 168.8175,299.947 C168.8175,297.196 167.3265,295.81 164.9955,295.81 C163.9035,295.81 162.7065,296.482 161.8665,297.532 C161.9295,293.269 163.5255,291.799 165.3945,291.799 C166.2345,291.799 167.0745,292.219 167.5995,292.87 L168.5655,291.778 C167.8305,290.959 166.7805,290.35 165.3315,290.35 C162.6645,290.35 160.2285,292.429 160.2285,297.805 C160.2285,302.11 162.2235,304.252 164.8485,304.252 Z M164.8485,302.887 C163.1685,302.887 162.1395,301.501 161.9085,298.897 C162.7485,297.637 163.8405,297.112 164.7015,297.112 C166.3605,297.112 167.1795,298.204 167.1795,299.947 C167.1795,301.711 166.1715,302.887 164.8485,302.887 Z M173.9625,304.252 C176.6505,304.252 179.0865,302.173 179.0865,296.797 C179.0865,292.492 177.0915,290.35 174.4455,290.35 C172.3035,290.35 170.4975,292.093 170.4975,294.655 C170.4975,297.406 171.9885,298.792 174.2985,298.792 C175.3905,298.792 176.5875,298.162 177.4275,297.112 C177.3435,301.354 175.7895,302.803 173.8995,302.803 C173.0595,302.803 172.2405,302.383 171.6945,301.753 L170.7285,302.845 C171.4635,303.643 172.5345,304.252 173.9625,304.252 Z M174.5925,297.49 C172.9545,297.49 172.1355,296.398 172.1355,294.655 C172.1355,292.891 173.1435,291.736 174.4455,291.736 C176.1465,291.736 177.1755,293.122 177.3855,295.726 C176.5455,296.965 175.4745,297.49 174.5925,297.49 Z M185.3445,304.252 C187.9485,304.252 189.6705,302.677 189.6705,300.682 C189.6705,298.876 188.5365,297.931 187.3395,297.238 L187.3395,297.154 C188.1795,296.524 189.1875,295.327 189.1875,293.92 C189.1875,291.841 187.7385,290.35 185.4075,290.35 C183.2445,290.35 181.6065,291.736 181.6065,293.794 C181.6065,295.201 182.4885,296.188 183.4755,296.881 L183.4755,296.965 C182.2155,297.637 180.9555,298.834 180.9555,300.577 C180.9555,302.698 182.8245,304.252 185.3445,304.252 Z M186.2895,296.692 C184.6725,296.062 183.2025,295.39 183.2025,293.794 C183.2025,292.492 184.1265,291.652 185.3655,291.652 C186.8355,291.652 187.6965,292.702 187.6965,294.004 C187.6965,294.991 187.1925,295.894 186.2895,296.692 Z M185.3865,302.95 C183.7485,302.95 182.5305,301.879 182.5305,300.409 C182.5305,299.191 183.3285,298.204 184.3785,297.511 C186.3105,298.288 188.0115,298.897 188.0115,300.619 C188.0115,302.005 186.9405,302.95 185.3865,302.95 Z M196.0755,304.252 C198.5745,304.252 200.5275,302.404 200.5275,299.233 C200.5275,297.322 199.7925,295.894 198.5325,295.201 L198.5325,295.117 C199.6665,295.117 200.5905,295.18 201.7455,295.285 L201.7455,293.794 L196.1595,293.794 C193.7445,293.794 191.4975,295.432 191.4975,299.002 C191.4975,302.383 193.5975,304.252 196.0755,304.252 Z M196.0965,302.803 C194.4795,302.803 193.3035,301.333 193.3035,299.002 C193.3035,296.461 194.5005,295.243 196.1175,295.243 C197.8605,295.243 198.8265,297.049 198.8265,299.086 C198.8265,301.375 197.6925,302.803 196.0965,302.803 Z" id="-2.698σ" fill="#333333" fill-rule="nonzero"/>
        <path d="M617.76,304 L617.76,302.509 L613.749,302.509 C613.056,302.509 612.237,302.551 611.502,302.614 C614.757,299.296 617.109,296.881 617.109,294.277 C617.109,291.925 615.555,290.35 613.077,290.35 C611.355,290.35 610.158,291.169 609.045,292.429 L610.032,293.374 C610.788,292.492 611.754,291.778 612.867,291.778 C614.568,291.778 615.408,292.849 615.408,294.382 C615.408,296.545 613.098,299.023 609.108,302.929 L609.108,304 L617.76,304 Z M621.33,304.252 C622.023,304.252 622.59,303.706 622.59,302.929 C622.59,302.131 622.023,301.585 621.33,301.585 C620.637,301.585 620.07,302.131 620.07,302.929 C620.07,303.706 620.637,304.252 621.33,304.252 Z M629.583,304.252 C631.746,304.252 633.552,302.509 633.552,299.947 C633.552,297.196 632.061,295.81 629.73,295.81 C628.638,295.81 627.441,296.482 626.601,297.532 C626.664,293.269 628.26,291.799 630.129,291.799 C630.969,291.799 631.809,292.219 632.334,292.87 L633.3,291.778 C632.565,290.959 631.515,290.35 630.066,290.35 C627.399,290.35 624.963,292.429 624.963,297.805 C624.963,302.11 626.958,304.252 629.583,304.252 Z M629.583,302.887 C627.903,302.887 626.874,301.501 626.643,298.897 C627.483,297.637 628.575,297.112 629.436,297.112 C631.095,297.112 631.914,298.204 631.914,299.947 C631.914,301.711 630.906,302.887 629.583,302.887 Z M638.697,304.252 C641.385,304.252 643.821,302.173 643.821,296.797 C643.821,292.492 641.826,290.35 639.18,290.35 C637.038,290.35 635.232,292.093 635.232,294.655 C635.232,297.406 636.723,298.792 639.033,298.792 C640.125,298.792 641.322,298.162 642.162,297.112 C642.078,301.354 640.524,302.803 638.634,302.803 C637.794,302.803 636.975,302.383 636.429,301.753 L635.463,302.845 C636.198,303.643 637.269,304.252 638.697,304.252 Z M639.327,297.49 C637.689,297.49 636.87,296.398 636.87,294.655 C636.87,292.891 637.878,291.736 639.18,291.736 C640.881,291.736 641.91,293.122 642.12,295.726 C641.28,296.965 640.209,297.49 639.327,297.49 Z M650.079,304.252 C652.683,304.252 654.405,302.677 654.405,300.682 C654.405,298.876 653.271,297.931 652.074,297.238 L652.074,297.154 C652.914,296.524 653.922,295.327 653.922,293.92 C653.922,291.841 652.473,290.35 650.142,290.35 C647.979,290.35 646.341,291.736 646.341,293.794 C646.341,295.201 647.223,296.188 648.21,296.881 L648.21,296.965 C646.95,297.637 645.69,298.834 645.69,300.577 C645.69,302.698 647.559,304.252 650.079,304.252 Z M651.024,296.692 C649.407,296.062 647.937,295.39 647.937,293.794 C647.937,292.492 648.861,291.652 650.1,291.652 C651.57,291.652 652.431,292.702 652.431,294.004 C652.431,294.991 651.927,295.894 651.024,296.692 Z M650.121,302.95 C648.483,302.95 647.265,301.879 647.265,300.409 C647.265,299.191 648.063,298.204 649.113,297.511 C651.045,298.288 652.746,298.897 652.746,300.619 C652.746,302.005 651.675,302.95 650.121,302.95 Z M660.81,304.252 C663.309,304.252 665.262,302.404 665.262,299.233 C665.262,297.322 664.527,295.894 663.267,295.201 L663.267,295.117 C664.401,295.117 665.325,295.18 666.48,295.285 L666.48,293.794 L660.894,293.794 C658.479,293.794 656.232,295.432 656.232,299.002 C656.232,302.383 658.332,304.252 660.81,304.252 Z M660.831,302.803 C659.214,302.803 658.038,301.333 658.038,299.002 C658.038,296.461 659.235,295.243 660.852,295.243 C662.595,295.243 663.561,297.049 663.561,299.086 C663.561,301.375 662.427,302.803 660.831,302.803 Z" id="2.698σ" fill="#333333" fill-rule="nonzero"/>
        <path d="M311.975,299.401 L311.975,298.057 L307.145,298.057 L307.145,299.401 L311.975,299.401 Z M318.044,304.252 C320.711,304.252 322.328,301.753 322.328,297.259 C322.328,292.765 320.711,290.35 318.044,290.35 C315.356,290.35 313.739,292.765 313.739,297.259 C313.739,301.753 315.356,304.252 318.044,304.252 Z M318.044,302.845 C316.49,302.845 315.44,301.186 315.44,297.259 C315.44,293.332 316.49,291.757 318.044,291.757 C319.598,291.757 320.648,293.332 320.648,297.259 C320.648,301.186 319.598,302.845 318.044,302.845 Z M325.877,304.252 C326.57,304.252 327.137,303.706 327.137,302.929 C327.137,302.131 326.57,301.585 325.877,301.585 C325.184,301.585 324.617,302.131 324.617,302.929 C324.617,303.706 325.184,304.252 325.877,304.252 Z M334.13,304.252 C336.293,304.252 338.099,302.509 338.099,299.947 C338.099,297.196 336.608,295.81 334.277,295.81 C333.185,295.81 331.988,296.482 331.148,297.532 C331.211,293.269 332.807,291.799 334.676,291.799 C335.516,291.799 336.356,292.219 336.881,292.87 L337.847,291.778 C337.112,290.959 336.062,290.35 334.613,290.35 C331.946,290.35 329.51,292.429 329.51,297.805 C329.51,302.11 331.505,304.252 334.13,304.252 Z M334.13,302.887 C332.45,302.887 331.421,301.501 331.19,298.897 C332.03,297.637 333.122,297.112 333.983,297.112 C335.642,297.112 336.461,298.204 336.461,299.947 C336.461,301.711 335.453,302.887 334.13,302.887 Z M344.315,304 C344.546,298.771 345.281,295.747 348.494,291.673 L348.494,290.602 L339.863,290.602 L339.863,292.114 L346.541,292.114 C343.832,295.81 342.761,298.96 342.53,304 L344.315,304 Z M357.398,304 L357.398,300.304 L359.225,300.304 L359.225,298.918 L357.398,298.918 L357.398,290.602 L355.466,290.602 L349.733,299.149 L349.733,300.304 L355.76,300.304 L355.76,304 L357.398,304 Z M355.76,298.918 L351.56,298.918 L354.689,294.361 C355.067,293.689 355.445,293.101 355.781,292.471 L355.865,292.471 C355.823,293.185 355.76,294.34 355.76,295.033 L355.76,298.918 Z M364.727,304.252 C367.058,304.252 369.242,302.614 369.242,299.716 C369.242,296.818 367.373,295.516 365.105,295.516 C364.286,295.516 363.677,295.726 363.047,296.062 L363.404,292.114 L368.591,292.114 L368.591,290.602 L361.871,290.602 L361.43,297.049 L362.354,297.637 C363.152,297.112 363.719,296.839 364.643,296.839 C366.365,296.839 367.478,297.91 367.478,299.758 C367.478,301.627 366.197,302.803 364.559,302.803 C362.984,302.803 361.976,302.068 361.178,301.27 L360.338,302.425 C361.262,303.349 362.585,304.252 364.727,304.252 Z M375.794,304.252 C378.293,304.252 380.246,302.404 380.246,299.233 C380.246,297.322 379.511,295.894 378.251,295.201 L378.251,295.117 C379.385,295.117 380.309,295.18 381.464,295.285 L381.464,293.794 L375.878,293.794 C373.463,293.794 371.216,295.432 371.216,299.002 C371.216,302.383 373.316,304.252 375.794,304.252 Z M375.815,302.803 C374.198,302.803 373.022,301.333 373.022,299.002 C373.022,296.461 374.219,295.243 375.836,295.243 C377.579,295.243 378.545,297.049 378.545,299.086 C378.545,301.375 377.411,302.803 375.815,302.803 Z" id="-0.6745σ" fill="#333333" fill-rule="nonzero"/>
        <path d="M433.7785,304.252 C436.4455,304.252 438.0625,301.753 438.0625,297.259 C438.0625,292.765 436.4455,290.35 433.7785,290.35 C431.0905,290.35 429.4735,292.765 429.4735,297.259 C429.4735,301.753 431.0905,304.252 433.7785,304.252 Z M433.7785,302.845 C432.2245,302.845 431.1745,301.186 431.1745,297.259 C431.1745,293.332 432.2245,291.757 433.7785,291.757 C435.3325,291.757 436.3825,293.332 436.3825,297.259 C436.3825,301.186 435.3325,302.845 433.7785,302.845 Z M441.6115,304.252 C442.3045,304.252 442.8715,303.706 442.8715,302.929 C442.8715,302.131 442.3045,301.585 441.6115,301.585 C440.9185,301.585 440.3515,302.131 440.3515,302.929 C440.3515,303.706 440.9185,304.252 441.6115,304.252 Z M449.8645,304.252 C452.0275,304.252 453.8335,302.509 453.8335,299.947 C453.8335,297.196 452.3425,295.81 450.0115,295.81 C448.9195,295.81 447.7225,296.482 446.8825,297.532 C446.9455,293.269 448.5415,291.799 450.4105,291.799 C451.2505,291.799 452.0905,292.219 452.6155,292.87 L453.5815,291.778 C452.8465,290.959 451.7965,290.35 450.3475,290.35 C447.6805,290.35 445.2445,292.429 445.2445,297.805 C445.2445,302.11 447.2395,304.252 449.8645,304.252 Z M449.8645,302.887 C448.1845,302.887 447.1555,301.501 446.9245,298.897 C447.7645,297.637 448.8565,297.112 449.7175,297.112 C451.3765,297.112 452.1955,298.204 452.1955,299.947 C452.1955,301.711 451.1875,302.887 449.8645,302.887 Z M460.0495,304 C460.2805,298.771 461.0155,295.747 464.2285,291.673 L464.2285,290.602 L455.5975,290.602 L455.5975,292.114 L462.2755,292.114 C459.5665,295.81 458.4955,298.96 458.2645,304 L460.0495,304 Z M473.1325,304 L473.1325,300.304 L474.9595,300.304 L474.9595,298.918 L473.1325,298.918 L473.1325,290.602 L471.2005,290.602 L465.4675,299.149 L465.4675,300.304 L471.4945,300.304 L471.4945,304 L473.1325,304 Z M471.4945,298.918 L467.2945,298.918 L470.4235,294.361 C470.8015,293.689 471.1795,293.101 471.5155,292.471 L471.5995,292.471 C471.5575,293.185 471.4945,294.34 471.4945,295.033 L471.4945,298.918 Z M480.4615,304.252 C482.7925,304.252 484.9765,302.614 484.9765,299.716 C484.9765,296.818 483.1075,295.516 480.8395,295.516 C480.0205,295.516 479.4115,295.726 478.7815,296.062 L479.1385,292.114 L484.3255,292.114 L484.3255,290.602 L477.6055,290.602 L477.1645,297.049 L478.0885,297.637 C478.8865,297.112 479.4535,296.839 480.3775,296.839 C482.0995,296.839 483.2125,297.91 483.2125,299.758 C483.2125,301.627 481.9315,302.803 480.2935,302.803 C478.7185,302.803 477.7105,302.068 476.9125,301.27 L476.0725,302.425 C476.9965,303.349 478.3195,304.252 480.4615,304.252 Z M491.5285,304.252 C494.0275,304.252 495.9805,302.404 495.9805,299.233 C495.9805,297.322 495.2455,295.894 493.9855,295.201 L493.9855,295.117 C495.1195,295.117 496.0435,295.18 497.1985,295.285 L497.1985,293.794 L491.6125,293.794 C489.1975,293.794 486.9505,295.432 486.9505,299.002 C486.9505,302.383 489.0505,304.252 491.5285,304.252 Z M491.5495,302.803 C489.9325,302.803 488.7565,301.333 488.7565,299.002 C488.7565,296.461 489.9535,295.243 491.5705,295.243 C493.3135,295.243 494.2795,297.049 494.2795,299.086 C494.2795,301.375 493.1455,302.803 491.5495,302.803 Z" id="0.6745σ" fill="#333333" fill-rule="nonzero"/>
        <line x1="463" y1="494" x2="463" y2="530" id="Line-52" stroke="#73B0DE" stroke-width="2" stroke-linecap="round" stroke-dasharray="0,4"/>
        <line x1="345" y1="494" x2="345" y2="530" id="Line-52" stroke="#73B0DE" stroke-width="2" stroke-linecap="round" stroke-dasharray="0,4"/>
        <line x1="55" y1="236" x2="753" y2="236" id="Line-53" stroke="#636F80" stroke-width="2" stroke-linecap="square"/>
    </g>
</svg>
